<svg xmlns="http://www.w3.org/2000/svg" viewBox="0 0 720 200" width="720" height="200" role="img" aria-label="Internships posted per week, last 16 weeks"><title>Internships posted per week</title><g font-family="-apple-system,Segoe UI,Roboto,sans-serif" font-size="11"><line x1="38" y1="174.0" x2="706" y2="174.0" stroke="#30363d" stroke-width="1"/><text x="32" y="178.0" text-anchor="end" fill="#8b949e">0</text><line x1="38" y1="98.0" x2="706" y2="98.0" stroke="#30363d" stroke-width="1"/><text x="32" y="102.0" text-anchor="end" fill="#8b949e">20</text><line x1="38" y1="22.0" x2="706" y2="22.0" stroke="#30363d" stroke-width="1"/><text x="32" y="26.0" text-anchor="end" fill="#8b949e">39</text><path d="M38.0,174 L38.0,166.2 L82.5,146.7 L127.1,162.3 L171.6,162.3 L216.1,162.3 L260.7,162.3 L305.2,154.5 L349.7,166.2 L394.3,111.6 L438.8,127.2 L483.3,131.1 L527.9,115.5 L572.4,22.0 L616.9,99.9 L661.5,68.8 L706.0,84.4 L706.0,174 Z" fill="#2f81f7" fill-opacity="0.12"/><polyline points="38.0,166.2 82.5,146.7 127.1,162.3 171.6,162.3 216.1,162.3 260.7,162.3 305.2,154.5 349.7,166.2 394.3,111.6 438.8,127.2 483.3,131.1 527.9,115.5 572.4,22.0 616.9,99.9 661.5,68.8 706.0,84.4" fill="none" stroke="#2f81f7" stroke-width="2" stroke-linejoin="round" stroke-linecap="round"/><circle cx="572.4" cy="22.0" r="3.5" fill="#2f81f7"/><text x="572.4" y="13.0" text-anchor="middle" fill="#e6edf3" font-weight="600">39</text><circle cx="706.0" cy="84.4" r="3.5" fill="#2f81f7"/><text x="706.0" y="75.4" text-anchor="middle" fill="#e6edf3" font-weight="600">23</text><text x="38.0" y="192" text-anchor="middle" fill="#8b949e">Apr 06</text><text x="216.1" y="192" text-anchor="middle" fill="#8b949e">May 04</text><text x="394.3" y="192" text-anchor="middle" fill="#8b949e">Jun 01</text><text x="572.4" y="192" text-anchor="middle" fill="#8b949e">Jun 29</text><text x="706.0" y="192" text-anchor="middle" fill="#8b949e">Jul 20</text></g></svg>