<svg xmlns="http://www.w3.org/2000/svg" viewBox="0 0 720 200" width="720" height="200" role="img" aria-label="Internships posted per week, last 16 weeks"><title>Internships posted per week</title><g font-family="-apple-system,Segoe UI,Roboto,sans-serif" font-size="11"><line x1="38" y1="174.0" x2="706" y2="174.0" stroke="#30363d" stroke-width="1"/><text x="32" y="178.0" text-anchor="end" fill="#8b949e">0</text><line x1="38" y1="98.0" x2="706" y2="98.0" stroke="#30363d" stroke-width="1"/><text x="32" y="102.0" text-anchor="end" fill="#8b949e">8</text><line x1="38" y1="22.0" x2="706" y2="22.0" stroke="#30363d" stroke-width="1"/><text x="32" y="26.0" text-anchor="end" fill="#8b949e">15</text><path d="M38.0,174 L38.0,163.9 L82.5,153.7 L127.1,163.9 L171.6,174.0 L216.1,163.9 L260.7,153.7 L305.2,163.9 L349.7,163.9 L394.3,123.3 L438.8,174.0 L483.3,163.9 L527.9,133.5 L572.4,22.0 L616.9,82.8 L661.5,72.7 L706.0,174.0 L706.0,174 Z" fill="#2f81f7" fill-opacity="0.12"/><polyline points="38.0,163.9 82.5,153.7 127.1,163.9 171.6,174.0 216.1,163.9 260.7,153.7 305.2,163.9 349.7,163.9 394.3,123.3 438.8,174.0 483.3,163.9 527.9,133.5 572.4,22.0 616.9,82.8 661.5,72.7 706.0,174.0" fill="none" stroke="#2f81f7" stroke-width="2" stroke-linejoin="round" stroke-linecap="round"/><circle cx="572.4" cy="22.0" r="3.5" fill="#2f81f7"/><text x="572.4" y="13.0" text-anchor="middle" fill="#e6edf3" font-weight="600">15</text><circle cx="706.0" cy="174.0" r="3.5" fill="#2f81f7"/><text x="706.0" y="165.0" text-anchor="middle" fill="#e6edf3" font-weight="600">0</text><text x="38.0" y="192" text-anchor="middle" fill="#8b949e">Apr 06</text><text x="216.1" y="192" text-anchor="middle" fill="#8b949e">May 04</text><text x="394.3" y="192" text-anchor="middle" fill="#8b949e">Jun 01</text><text x="572.4" y="192" text-anchor="middle" fill="#8b949e">Jun 29</text><text x="706.0" y="192" text-anchor="middle" fill="#8b949e">Jul 20</text></g></svg>