<svg xmlns="http://www.w3.org/2000/svg" viewBox="0 0 720 200" width="720" height="200" role="img" aria-label="Internships posted per week, last 16 weeks"><title>Internships posted per week</title><g font-family="-apple-system,Segoe UI,Roboto,sans-serif" font-size="11"><line x1="38" y1="174.0" x2="706" y2="174.0" stroke="#30363d" stroke-width="1"/><text x="32" y="178.0" text-anchor="end" fill="#8b949e">0</text><line x1="38" y1="98.0" x2="706" y2="98.0" stroke="#30363d" stroke-width="1"/><text x="32" y="102.0" text-anchor="end" fill="#8b949e">12</text><line x1="38" y1="22.0" x2="706" y2="22.0" stroke="#30363d" stroke-width="1"/><text x="32" y="26.0" text-anchor="end" fill="#8b949e">25</text><path d="M38.0,174 L38.0,155.8 L82.5,155.8 L127.1,119.3 L171.6,155.8 L216.1,149.7 L260.7,155.8 L305.2,149.7 L349.7,143.6 L394.3,161.8 L438.8,125.4 L483.3,137.5 L527.9,131.4 L572.4,125.4 L616.9,22.0 L661.5,143.6 L706.0,174.0 L706.0,174 Z" fill="#2f81f7" fill-opacity="0.12"/><polyline points="38.0,155.8 82.5,155.8 127.1,119.3 171.6,155.8 216.1,149.7 260.7,155.8 305.2,149.7 349.7,143.6 394.3,161.8 438.8,125.4 483.3,137.5 527.9,131.4 572.4,125.4 616.9,22.0 661.5,143.6 706.0,174.0" fill="none" stroke="#2f81f7" stroke-width="2" stroke-linejoin="round" stroke-linecap="round"/><circle cx="616.9" cy="22.0" r="3.5" fill="#2f81f7"/><text x="616.9" y="13.0" text-anchor="middle" fill="#e6edf3" font-weight="600">25</text><circle cx="706.0" cy="174.0" r="3.5" fill="#2f81f7"/><text x="706.0" y="165.0" text-anchor="middle" fill="#e6edf3" font-weight="600">0</text><text x="38.0" y="192" text-anchor="middle" fill="#8b949e">Mar 30</text><text x="216.1" y="192" text-anchor="middle" fill="#8b949e">Apr 27</text><text x="394.3" y="192" text-anchor="middle" fill="#8b949e">May 25</text><text x="572.4" y="192" text-anchor="middle" fill="#8b949e">Jun 22</text><text x="706.0" y="192" text-anchor="middle" fill="#8b949e">Jul 13</text></g></svg>